<svg version="1.0" xmlns="http://www.w3.org/2000/svg" width="960pt" height="960pt" viewBox="0 0 960 960"><g transform="translate(0.000000,960.000000) scale(0.100000,-0.100000)" fill="#000" stroke="none"><path d="M8375 9504c-44-14-76-42-275-240l-225-224 343-343 344-344-164 44c-167 45-535 123-577 123-17 0-57 32-135 110l-112 110-81-81-80-81-149 11c-810 59-1596-32-2333-271-68-22-133-38-145-35-11 3-86 26-166 51-850 270-1808 342-2745 205-302-44-626-119-942-218l-162-51H386 0V4630 990h48e2 48e2v3640 3640h-345c-190 0-345 3-345 7s69 77 154 163c144 145 155 160 171 215 22 73 16 156-16 222-32 69-544 580-613 613-62 30-163 36-231 14zM3370 8256c409-42 757-109 1123-218l137-41V5033c0-1629-1-2963-3-2963-1 0-77 25-167 55-1135 381-2112 459-3027 240-151-36-406-117-524-166-40-16-73-29-75-29s-4 1297-4 2883v2882l28 13c89 44 439 146 675 196 291 63 585 105 887 126 184 13 767 4 950-14zm3720 6c0-4-255-262-567-574l-568-566-105-4c-115-4-154-18-193-70-28-38-34-117-12-174l18-46-247-247-246-246 2-445 3-445 264-3c235-2 263-4 244-17-52-36-69-145-33-214 13-27 33-46 63-60l44-21 1209 2 1209 3 33 23c89 64 88 209-1 276-28 21-29 21-1068 24-571 1-1039 6-1039 10s109 117 243 250l243 242h6e2 601l33 23c49 33 70 66 76 122 8 71-25 132-86 163-44 22-48 22-470 22h-425l250 250 251 250h372c301 0 378 3 4e2 14 112 58 118 226 10 291-29 18-56 21-241 25l-207 5 360 360 360 360-127 127c-70 71-121 128-112 128 24 0 251-66 402-117l137-46V5064c0-1581-2-2874-4-2874s-57 20-122 45c-244 95-555 175-829 214-416 59-914 56-1385-10-396-55-977-198-1358-334-53-19-98-35-99-35-2 0-3 1333-3 2963v2963l43 12c499 144 950 226 1402 255 108 7 675 7 675-1zM5e2 4880V1820h-85-85v3060 3060h85 85V4880zm8770 0V1820h-85-85v3060 3060h85 85V4880zM5772 6193l3-148 148-3 147-3v-149-150l-297 2-298 3-3 298-2 297h150 149l3-147zm1719-4053c425-33 853-137 1169-284l75-35H7025c-1520 0-1706 2-1670 15 131 49 539 155 780 203 256 51 459 78 790 104 98 8 443 6 566-3zm-4751-10c411-25 823-99 1260-225 102-30 203-61 225-69 36-13-142-15-1640-15-1415 0-1676 2-1655 13 52 29 301 116 439 155 433 123 894 170 1371 141zm6530-725v-85H48e2 330v85 85h4470 4470v-85z"/><path d="M2548 6773l-3-128-527-3-528-2v-85-85h530 530v-105-105h-720-720v-1e2-1e2h720 720v-105-105H2e3h-550v-90-90h550 550v-1e2-1e2h-6e2-6e2v-90-90h6e2 601l-3-107-3-108-722-3-723-2v-95-95h1590 1590v95 95h-735-735v110 110h615 615v90 90h-615-615v1e2 1e2h515 515v195 195h220 220v1e2 1e2h-220-220v190 190h-515-515v130 130h-130-129l-3-127zm1032-408v-105h-385-385v105 105h385 385v-105zm0-410v-105h-385-385v105 105h385 385v-105z"/><path d="M1560 4155v-555h130 130v60 60h885 884l3-57 3-58h130 130l3 553 2 552H2710 1560v-555zm2030 260v-115h-885-885v115 115h885 885v-115zm0-4e2v-115h-885-885v115 115h885 885v-115z"/><path d="M5711 4613c-53-28-74-64-79-136-3-52 0-67 20-96 12-19 36-44 51-55 28-21 32-21 830-21 787 0 803 0 837 20 97 56 103 211 12 280-26 20-45 20-832 23-751 2-807 1-839-15z"/><path d="M6411 38e2c-80-19-124-82-119-171 5-64 32-110 81-137 30-16 97-17 870-20 549-2 858 1 895 8 1e2 18 157 106 132 202-16 56-29 75-70 101l-35 22-860 2c-473 0-875-2-894-7z"/></g></svg>