<?xml version="1.0" standalone="no"?>
<!DOCTYPE svg PUBLIC "-//W3C//DTD SVG 20010904//EN"
 "http://www.w3.org/TR/2001/REC-SVG-20010904/DTD/svg10.dtd">
<svg version="1.0" xmlns="http://www.w3.org/2000/svg"
 width="960.000000pt" height="960.000000pt" viewBox="0 0 960.000000 960.000000"
 preserveAspectRatio="xMidYMid meet">
<metadata>
Created by potrace 1.11, written by Peter Selinger 2001-2013
</metadata>
<g transform="translate(0.000000,960.000000) scale(0.100000,-0.100000)"
fill="#000000" stroke="none">
<path d="M8375 9504 c-44 -14 -76 -42 -275 -240 l-225 -224 343 -343 344 -344
-164 44 c-167 45 -535 123 -577 123 -17 0 -57 32 -135 110 l-112 110 -81 -81
-80 -81 -149 11 c-810 59 -1596 -32 -2333 -271 -68 -22 -133 -38 -145 -35 -11
3 -86 26 -166 51 -850 270 -1808 342 -2745 205 -302 -44 -626 -119 -942 -218
l-162 -51 -385 0 -386 0 0 -3640 0 -3640 4800 0 4800 0 0 3640 0 3640 -345 0
c-190 0 -345 3 -345 7 0 4 69 77 154 163 144 145 155 160 171 215 22 73 16
156 -16 222 -32 69 -544 580 -613 613 -62 30 -163 36 -231 14z m-5005 -1248
c409 -42 757 -109 1123 -218 l137 -41 0 -2964 c0 -1629 -1 -2963 -3 -2963 -1
0 -77 25 -167 55 -1135 381 -2112 459 -3027 240 -151 -36 -406 -117 -524 -166
-40 -16 -73 -29 -75 -29 -2 0 -4 1297 -4 2883 l0 2882 28 13 c89 44 439 146
675 196 291 63 585 105 887 126 184 13 767 4 950 -14z m3720 6 c0 -4 -255
-262 -567 -574 l-568 -566 -105 -4 c-115 -4 -154 -18 -193 -70 -28 -38 -34
-117 -12 -174 l18 -46 -247 -247 -246 -246 2 -445 3 -445 264 -3 c235 -2 263
-4 244 -17 -52 -36 -69 -145 -33 -214 13 -27 33 -46 63 -60 l44 -21 1209 2
1209 3 33 23 c89 64 88 209 -1 276 -28 21 -29 21 -1068 24 -571 1 -1039 6
-1039 10 0 4 109 117 243 250 l243 242 600 0 601 0 33 23 c49 33 70 66 76 122
8 71 -25 132 -86 163 -44 22 -48 22 -470 22 l-425 0 250 250 251 250 372 0
c301 0 378 3 400 14 112 58 118 226 10 291 -29 18 -56 21 -241 25 l-207 5 360
360 360 360 -127 127 c-70 71 -121 128 -112 128 24 0 251 -66 402 -117 l137
-46 0 -2873 c0 -1581 -2 -2874 -4 -2874 -2 0 -57 20 -122 45 -244 95 -555 175
-829 214 -416 59 -914 56 -1385 -10 -396 -55 -977 -198 -1358 -334 -53 -19
-98 -35 -99 -35 -2 0 -3 1333 -3 2963 l0 2963 43 12 c499 144 950 226 1402
255 108 7 675 7 675 -1z m-6590 -3382 l0 -3060 -85 0 -85 0 0 3060 0 3060 85
0 85 0 0 -3060z m8770 0 l0 -3060 -85 0 -85 0 0 3060 0 3060 85 0 85 0 0
-3060z m-3498 1313 l3 -148 148 -3 147 -3 0 -149 0 -150 -297 2 -298 3 -3 298
-2 297 150 0 149 0 3 -147z m1719 -4053 c425 -33 853 -137 1169 -284 l75 -35
-1710 0 c-1520 0 -1706 2 -1670 15 131 49 539 155 780 203 256 51 459 78 790
104 98 8 443 6 566 -3z m-4751 -10 c411 -25 823 -99 1260 -225 102 -30 203
-61 225 -69 36 -13 -142 -15 -1640 -15 -1415 0 -1676 2 -1655 13 52 29 301
116 439 155 433 123 894 170 1371 141z m6530 -725 l0 -85 -4470 0 -4470 0 0
85 0 85 4470 0 4470 0 0 -85z"/>
<path d="M2548 6773 l-3 -128 -527 -3 -528 -2 0 -85 0 -85 530 0 530 0 0 -105
0 -105 -720 0 -720 0 0 -100 0 -100 720 0 720 0 0 -105 0 -105 -550 0 -550 0
0 -90 0 -90 550 0 550 0 0 -100 0 -100 -600 0 -600 0 0 -90 0 -90 600 0 601 0
-3 -107 -3 -108 -722 -3 -723 -2 0 -95 0 -95 1590 0 1590 0 0 95 0 95 -735 0
-735 0 0 110 0 110 615 0 615 0 0 90 0 90 -615 0 -615 0 0 100 0 100 515 0
515 0 0 195 0 195 220 0 220 0 0 100 0 100 -220 0 -220 0 0 190 0 190 -515 0
-515 0 0 130 0 130 -130 0 -129 0 -3 -127z m1032 -408 l0 -105 -385 0 -385 0
0 105 0 105 385 0 385 0 0 -105z m0 -410 l0 -105 -385 0 -385 0 0 105 0 105
385 0 385 0 0 -105z"/>
<path d="M1560 4155 l0 -555 130 0 130 0 0 60 0 60 885 0 884 0 3 -57 3 -58
130 0 130 0 3 553 2 552 -1150 0 -1150 0 0 -555z m2030 260 l0 -115 -885 0
-885 0 0 115 0 115 885 0 885 0 0 -115z m0 -400 l0 -115 -885 0 -885 0 0 115
0 115 885 0 885 0 0 -115z"/>
<path d="M5711 4613 c-53 -28 -74 -64 -79 -136 -3 -52 0 -67 20 -96 12 -19 36
-44 51 -55 28 -21 32 -21 830 -21 787 0 803 0 837 20 97 56 103 211 12 280
-26 20 -45 20 -832 23 -751 2 -807 1 -839 -15z"/>
<path d="M6411 3800 c-80 -19 -124 -82 -119 -171 5 -64 32 -110 81 -137 30
-16 97 -17 870 -20 549 -2 858 1 895 8 100 18 157 106 132 202 -16 56 -29 75
-70 101 l-35 22 -860 2 c-473 0 -875 -2 -894 -7z"/>
</g>
</svg>
